<svg width="13" height="14" viewBox="0 0 13 14" fill="none" xmlns="http://www.w3.org/2000/svg">
<path d="M0.631779 11.7554C0.338886 12.0482 0.338886 12.5231 0.631779 12.816C0.924673 13.1089 1.39955 13.1089 1.69244 12.816L0.631779 11.7554ZM12.9121 1.28568C12.9121 0.871469 12.5763 0.535682 12.1621 0.535682H5.41211C4.9979 0.535682 4.66211 0.871469 4.66211 1.28568C4.66211 1.6999 4.9979 2.03568 5.41211 2.03568L11.4121 2.03568L11.4121 8.03568C11.4121 8.4499 11.7479 8.78568 12.1621 8.78568C12.5763 8.78568 12.9121 8.4499 12.9121 8.03568V1.28568ZM1.69244 12.816L12.6924 1.81601L11.6318 0.755352L0.631779 11.7554L1.69244 12.816Z" fill="white"/>
</svg>
